<?xml version="1.0" encoding="utf-8"?>
<?xml-stylesheet type="text/xsl" href="rss1.xsl"?>
<rss version="2.0" xmlns:atom="http://www.w3.org/2005/Atom" xmlns:content="http://purl.org/rss/1.0/modules/content/" xmlns:dc="http://purl.org/dc/elements/1.1/" xmlns:media="http://search.yahoo.com/mrss/">
<channel>
 <title>sharemania</title>
 <link>http://www.sharemania.us/</link>
 <atom:link href="http://www.gettyimg.com/" rel="self" type="application/rss+xml" />

 
                <item>
                <title><![CDATA[【Albums (lossless)】ALAC - TREASURE - 3rd MINI ALBUM [LOVE PULSE] - EP [ALAC, 24bit/48kHz, 2.3Mbps]]]></title>
                <link><![CDATA[https://sharemania.us/threads/treasure-3rd-mini-album-love-pulse-ep-alac-24bit-48khz-2-3mbps.283184/]]></link>
                <description><![CDATA[<article>
				<blockquote class="messageText SelectQuoteContainer ugc baseHtml">
					
					<img src="https://a5.mzstatic.com/us/r1000/0/Music211/v4/74/68/80/74688054-fb1e-f70f-fbb2-ddcdb62ef431/8809519880903_cover.jpg" class="bbCodeImage LbImage" alt="[​IMG]" data-url="https://a5.mzstatic.com/us/r1000/0/Music211/v4/74/68/80/74688054-fb1e-f70f-fbb2-ddcdb62ef431/8809519880903_cover.jpg" style=""><br>
<br>
<b>Artist: TREASURE<br>
Album: 3rd MINI ALBUM [LOVE PULSE] - EP<br>
Format: Apple Lossless Audio Codec<br>
Source: Apple Music<br>
.m4a [ALAC, 24bit/48kHz, 2.3Mbps]</b><br>
<br>
Tracklist:<br>
1 EVERYTHING <img src="https://bendodson.s3-eu-west-1.amazonaws.com/apple-music/lossless.png" class="bbCodeImage LbImage" alt="[​IMG]" data-url="https://bendodson.s3-eu-west-1.amazonaws.com/apple-music/lossless.png" style=""> 02:52<br>
2 PARADISE <img src="https://bendodson.s3-eu-west-1.amazonaws.com/apple-music/lossless.png" class="bbCodeImage LbImage" alt="[​IMG]" data-url="https://bendodson.s3-eu-west-1.amazonaws.com/apple-music/lossless.png" style=""> 02:51<br>
3 NOW FOREVER <img src="https://bendodson.s3-eu-west-1.amazonaws.com/apple-music/lossless.png" class="bbCodeImage LbImage" alt="[​IMG]" data-url="https://bendodson.s3-eu-west-1.amazonaws.com/apple-music/lossless.png" style=""> 03:05<br>
4 BETTER THAN ME <img src="https://bendodson.s3-eu-west-1.amazonaws.com/apple-music/lossless.png" class="bbCodeImage LbImage" alt="[​IMG]" data-url="https://bendodson.s3-eu-west-1.amazonaws.com/apple-music/lossless.png" style=""> 02:57<br>
<b>Released 1 September 2025<br>
℗ 2025 YG Entertainment, under license to YG PLUS</b><br>
<br>



<div class="ToggleTriggerAnchor bbCodeSpoilerContainer">
	<button type="button" class="button bbCodeSpoilerButton ToggleTrigger Tooltip JsOnly" data-target="&gt; .SpoilerTarget"><span>Spoiler: <span class="SpoilerTitle">MediaInfo</span></span></button>
	<div class="SpoilerTarget bbCodeSpoilerText">

<div class="bbCodeBlock bbCodeCode">
	<div class="type">Code:</div>
	<pre>General
Complete name               : 01. EVERYTHING.m4a
Format                      : MPEG-4
Format profile              : Apple audio with iTunes info
Codec ID                    : M4A  (isom/iso5/hlsf/M4A /mp42)
File size                   : 42.5 MiB
Duration                    : 2 min 52 s
Overall bit rate mode       : Variable
Overall bit rate            : 2 071 kb/s
Album                       : 3rd MINI ALBUM [LOVE PULSE] - EP
Album/Sorted by             : 3rd MINI ALBUM [LOVE PULSE] - EP
Album/Performer             : TREASURE
Album/Performer/Sort        : TREASURE
Part/Position               : 1
Part/Total                  : 1
Track name                  : EVERYTHING
Track name/Position         : 1
Track name/Total            : 4
Performer                   : TREASURE
Performer/Sorted by         : TREASURE
Composer                    : CHOICE37, LP, Sonny, Jared Lee &amp; LIL G
Composer/Sorted by          : CHOICE37, LP, Sonny, Jared Lee &amp; LIL G
Genre                       : Dance
Recorded date               : 2025-09-01
Encoded date                : 2025-08-25 07:04:35 UTC
Tagged date                 : 2025-08-25 07:04:35 UTC
ISRC                        : KRA402400138
Copyright                   : ℗ 2025 YG Entertainment, under license to YG PLUS
Cover                       : Yes
Lyrics                      : [00:03.14]T-R-E-A-S-U-R-E / [00:06.94]계절을 잊고 피어난 저 꽃처럼 / [00:12.26]넌 내게 운명처럼 다가왔지 / [00:19.68]내 마음이 커질수록 두려워 / [00:24.90]너 없는 난 상상조차도 못 해 / [00:30.85]Oh please, please, please / [00:33.91]날 원하길 / [00:37.12]Without you I have nothing / [00:43.47]You're my everything / [00:46.55]Doesn't matter, matter without you / [00:49.74]I'll do anything / [00:52.98]Doesn't matter, matter without you / [00:55.99]사랑하는데 / [00:57.52]뭐 이유가 있니 / [00:59.17]내 맘 끌리는 곳은 It's you / [01:02.35]You're my everything / [01:05.55]Doesn't matter, matter without / [01:07.73]Matter, matter, without you / [01:11.02]1, 2, 3 / [01:12.08]겁먹지 말어 Baby, baby / [01:13.89]지금 바로 네 옆으로 Ready / [01:15.85]Get set go, go / [01:16.64]Please don't fall away, woo / [01:18.30]I want nobody else / [01:19.40]You're my ride or die / [01:20.55]네 신경 쓰느라 바빠 / [01:22.14]탐내지 마 남의 떡을 / [01:23.29]그런데 너는 딴 곳을 봐 Na / [01:24.69]결국엔 전부 내 탓이야 / [01:26.49]네 앞에선 난 호구 / [01:27.92]제발 이러고 어디 가지 마 / [01:29.65]Heart is confused / [01:30.82]Oh please, please, please / [01:33.88]날 원하길 / [01:37.11]Without you I have nothing / [01:43.48]You're my everything / [01:46.58]Doesn't matter, matter without you / [01:49.78]I'll do anything / [01:52.90]Doesn't matter, matter without you / [01:55.99]사랑하는데 / [01:57.49]뭐 이유가 있니 / [01:59.10]내 맘 끌리는 곳은 It's you / [02:02.36]You're my everything / [02:05.52]Doesn't matter, matter without / [02:07.71]Matter, matter without you / [02:11.08]TREASURE / [02:12.64]Baby, you're my treasure / [02:15.82]You and me together / [02:18.98]Always and forever / [02:23.56]I'm dying, dying, dying, dying, dying / [02:25.72]Dying, dying, dying, dying, dying, dying for you / [02:29.88]I'm dying, dying, dying, dying, dying / [02:32.02]Dying, dying, dying, dying, dying, dying for you / [02:35.55]You're my everything / [02:38.70]Doesn't matter, matter without you / [02:41.83]You're my everything / [02:45.04]Doesn't matter, matter without / [02:47.22]Matter, matter without you
Title/Sort                  : EVERYTHING
pub                         : YG Entertainment
PlayListID                  : 1835346741
AlbumTitleID                : 1526319335
RELEASETIME                 : 2025-09-01
UPC                         : 8809519880903

Audio
ID                          : 1
Format                      : ALAC
Codec ID                    : alac
Codec ID/Info               : Apple Lossless Audio Codec
Duration                    : 2 min 52 s
Duration_LastFrame          : -16 ms
Bit rate mode               : Variable
Bit rate                    : 1 830 kb/s
Nominal bit rate            : 2 304 kb/s
Channel(s)                  : 2 channels
Sampling rate               : 48.0 kHz
Bit depth                   : 24 bits
Stream size                 : 37.6 MiB (88%)
Title                       : Core Media Audio
Encoded date                : 2025-08-25 07:04:35 UTC
Tagged date                 : 2025-09-02 12:33:16 UTC


</pre>
</div></div>
</div><br>
PASSWORD ZIP: sharemania<br>
link<br>




<div class="bbCodeBlock bbCodeVfcHH HiddenContent">
	<div class="attribution type">Hidden Content:</div>
	<blockquote>You must either reply or click 'Like' to see the hidden information contained here.</blockquote>
</div>
					<div class="messageTextEndMarker">&nbsp;</div>
				</blockquote>
			</article>]]></description>
                <author><![CDATA[andammm777]]></author>
                </item>

                
                <item>
                <title><![CDATA[【Albums (lossy)】Dolby Atmos - TREASURE – 3rd MINI ALBUM [LOVE PULSE] - EP [EAC3-JOC, 16bit/48kHz, 768Kbps, 5.1s]]]></title>
                <link><![CDATA[https://sharemania.us/threads/treasure-%E2%80%93-3rd-mini-album-love-pulse-ep-eac3-joc-16bit-48khz-768kbps-5-1s.283182/]]></link>
                <description><![CDATA[<article>
				<blockquote class="messageText SelectQuoteContainer ugc baseHtml">
					
					<img src="https://a5.mzstatic.com/us/r1000/0/Music211/v4/74/68/80/74688054-fb1e-f70f-fbb2-ddcdb62ef431/8809519880903_cover.jpg" class="bbCodeImage LbImage" alt="[​IMG]" data-url="https://a5.mzstatic.com/us/r1000/0/Music211/v4/74/68/80/74688054-fb1e-f70f-fbb2-ddcdb62ef431/8809519880903_cover.jpg" style=""><br>
<br>
<b>Artist: TREASURE<br>
Album: 3rd MINI ALBUM [LOVE PULSE] - EP<br>
Format: ◗◖Dolby Atmos◗◖<br>
.m4a [EAC3-JOC, 16bit/48kHz, 768Kbps, 5.1s]<br>
</b><br>
<br>
Tracklist:<br>
1 EVERYTHING <img src="https://bendodson.s3-eu-west-1.amazonaws.com/apple-music/dolby-atmos.png" class="bbCodeImage LbImage" alt="[​IMG]" data-url="https://bendodson.s3-eu-west-1.amazonaws.com/apple-music/dolby-atmos.png" style=""> 02:52<br>
2 PARADISE <img src="https://bendodson.s3-eu-west-1.amazonaws.com/apple-music/dolby-atmos.png" class="bbCodeImage LbImage" alt="[​IMG]" data-url="https://bendodson.s3-eu-west-1.amazonaws.com/apple-music/dolby-atmos.png" style=""> 02:51<br>
3 NOW FOREVER <img src="https://bendodson.s3-eu-west-1.amazonaws.com/apple-music/dolby-atmos.png" class="bbCodeImage LbImage" alt="[​IMG]" data-url="https://bendodson.s3-eu-west-1.amazonaws.com/apple-music/dolby-atmos.png" style=""> 03:05<br>
4 BETTER THAN ME <img src="https://bendodson.s3-eu-west-1.amazonaws.com/apple-music/dolby-atmos.png" class="bbCodeImage LbImage" alt="[​IMG]" data-url="https://bendodson.s3-eu-west-1.amazonaws.com/apple-music/dolby-atmos.png" style=""> 02:57<br>
<b>Released 1 September 2025<br>
℗ 2025 YG Entertainment, under license to YG PLUS</b><br>
<br>



<div class="ToggleTriggerAnchor bbCodeSpoilerContainer">
	<button type="button" class="button bbCodeSpoilerButton ToggleTrigger Tooltip JsOnly" data-target="&gt; .SpoilerTarget"><span>Spoiler: <span class="SpoilerTitle">MediaInfo-Dolby Atmos</span></span></button>
	<div class="SpoilerTarget bbCodeSpoilerText">

<div class="bbCodeBlock bbCodeCode">
	<div class="type">Code:</div>
	<pre>General
Complete name               : 02. PARADISE.m4a
Format                      : MPEG-4
Format profile              : Apple audio with iTunes info
Codec ID                    : M4A  (isom/iso5/hlsf/M4A /mp42)
File size                   : 20.6 MiB
Duration                    : 2 min 50 s
Overall bit rate mode       : Constant
Overall bit rate            : 1 010 kb/s
Album                       : 3rd MINI ALBUM [LOVE PULSE] - EP
Album/Sorted by             : 3rd MINI ALBUM [LOVE PULSE] - EP
Album/Performer             : TREASURE
Album/Performer/Sort        : TREASURE
Part/Position               : 1
Part/Total                  : 1
Track name                  : PARADISE
Track name/Position         : 2
Track name/Total            : 4
Performer                   : TREASURE
Performer/Sorted by         : TREASURE
Composer                    : DEE.P, P.K, Jared Lee, Jakke Erixson, Tor Eimon, Lil Shark &amp; J.DOOR
Composer/Sorted by          : DEE.P, P.K, Jared Lee, Jakke Erixson, Tor Eimon, Lil Shark &amp; J.DOOR
Genre                       : Dance
Recorded date               : 2025-09-01
Encoded date                : 2025-08-25 07:04:36 UTC
Tagged date                 : 2025-08-25 07:04:36 UTC
ISRC                        : KRA402400139
Copyright                   : ℗ 2025 YG Entertainment, under license to YG PLUS
Cover                       : Yes
Lyrics                      : [00:03.78]Let's go! / [00:04.84]떠나보자 우리 어디든 어디론가 / [00:09.35]설렘에 잠 못 이루는 긴긴밤 / [00:13.25]달빛 아래 내일을 그려본다 / [00:17.21]오늘은 오늘이고 내일 걱정은 집어치워 / [00:21.71]오늘 밤 다른 하늘 아래 / [00:25.89]너와 나 입을 맞출 때 / [00:29.70]So come on now and tell everybody / [00:32.02]Come on now and let's rock this party / [00:34.12]Over and over again / [00:36.20]Over and over again / [00:38.28]하늘 가득한 별들도 / [00:40.42]나와 춤추는 바람도 / [00:42.49]꿈과 현실이 만난 곳 / [00:44.61]여긴 Paradise / [00:46.68]기적 같은 널 만나고 / [00:48.83]나의 삶은 천국이고 / [00:50.92]Tonight you are so beautiful / [00:53.05]You are paradise / [00:54.59]Everyday / [00:57.99]널 사랑해 / [01:01.48]나의 Paradise / [01:03.56]화려한 Step으로 다가갈게 / [01:05.22]이 맘이 전부 다 네게로 닿길 바래 / [01:07.43]확실해 네가 내 피앙세라는 것도 / [01:09.85]신들도 질투하며 내게 말해 / [01:11.16]이 밤에 취해 / [01:12.73]Please don't hold me back / [01:14.84]벗어나자 현실 속에서 / [01:17.04]기분은 붕 떠 Fly high / [01:18.35]저 높이 있는 달도 / [01:19.66]나의 Spotlight / [01:20.10]내 손을 잡아 Baby girl / [01:22.02]네버랜드 위로 Here we go / [01:24.12]근심 걱정은 다 버리고 / [01:26.23]나만 믿고 따라 Follow / [01:29.09]오늘 밤 다른 하늘 아래 / [01:33.26]너와 나 입을 맞출 때 / [01:37.08]So come on now and tell everybody / [01:39.39]Come on now and let's rock this party / [01:41.50]Over and over again / [01:43.61]Over and over again / [01:45.71]하늘 가득한 별들도 / [01:47.82]나와 춤추는 바람도 / [01:49.84]꿈과 현실이 만난 곳 / [01:51.94]여긴 Paradise / [01:54.07]기적 같은 널 만나고 / [01:56.14]나의 삶은 천국이고 / [01:58.25]Tonight you are so beautiful / [02:00.37]You are paradise / [02:01.99]Everyday / [02:05.39]널 사랑해 / [02:08.82]나의 Paradise / [02:12.98]P to the A to the R to the A / [02:17.22]D to the I to the S to the E / [02:21.42]P to the A to the R to the A / [02:25.63]You are paradise / [02:27.78]하늘 가득한 별들도 / [02:29.92]나와 춤추는 바람도 / [02:32.00]꿈과 현실이 만난 곳 / [02:34.02]여긴 Paradise / [02:36.16]기적 같은 널 만나고 / [02:38.28]나의 삶은 천국이고 / [02:40.36]Tonight you are so beautiful / [02:42.44]You are paradise / [02:44.53]나의 Paradise
Title/Sort                  : PARADISE
pub                         : YG Entertainment
PlayListID                  : 1835346741
AlbumTitleID                : 1526319335
UPC                         : 8809519880903
RELEASETIME                 : 2025-09-01

Audio
ID                          : 1
Format                      : E-AC-3 JOC
Format/Info                 : Enhanced AC-3 with Joint Object Coding
Commercial name             : Dolby Digital Plus with Dolby Atmos
Codec ID                    : ec-3
Duration                    : 2 min 50 s
Duration_LastFrame          : -15 ms
Bit rate mode               : Constant
Bit rate                    : 768 kb/s
Channel(s)                  : 6 channels
Channel layout              : L R C LFE Ls Rs
Sampling rate               : 48.0 kHz
Frame rate                  : 31.250 FPS (1536 SPF)
Compression mode            : Lossy
Stream size                 : 15.6 MiB (76%)
Title                       : Core Media Audio
Service kind                : Complete Main
Encoded date                : 2025-08-25 07:04:36 UTC
Tagged date                 : 2025-09-02 13:03:04 UTC
Complexity index            : 16
Number of dynamic objects   : 15
Bed channel count           : 1 channel
Bed channel configuration   : LFE
Dialog Normalization        : -18 dB
compr                       : 10.24 dB
dmixmod                     : Lo/Ro
ltrtcmixlev                 : -3.0 dB
ltrtsurmixlev               : -3.0 dB
lorocmixlev                 : -3.0 dB
lorosurmixlev               : -3.0 dB
dialnorm_Average            : -18 dB
dialnorm_Minimum            : -18 dB
dialnorm_Maximum            : -18 dB


</pre>
</div></div>
</div><br>
Another Treasure Singles, Albums, EPs on <b>◗◖Dolby Atmos◗◖</b>:<br>
<ul>
<li><a href="https://sharemania.us/threads/treasure-%E2%80%93-the-first-step-treasure-effect-eac3-joc-16bit-48khz-768kbps-5-1s.282052/" class="internalLink">THE FIRST STEP : TREASURE EFFECT</a><br>
</li>
<li><a href="https://sharemania.us/threads/treasure-%E2%80%93-the-second-step-chapter-one-ep-eac3-joc-16bit-48khz-768kbps-5-1-surround.274094/" class="internalLink">THE SECOND STEP : CHAPTER ONE - EP</a><br>
</li>
<li><a href="https://sharemania.us/threads/treasure-%E2%80%93-the-second-step-chapter-two-ep-eac3-joc-16bit-48khz-768kbps-5-1-surround.274095/" class="internalLink">THE SECOND STEP : CHAPTER TWO - EP</a></li>
<li><a href="https://sharemania.us/threads/treasure-2nd-full-album-reboot-eac3-joc-16bit-48khz-768kbps-5-1s.283183/" class="internalLink">2ND FULL ALBUM 'REBOOT'</a><br>
</li>
<li><a href="https://sharemania.us/threads/treasure-king-kong-eac3-joc-16bit-48khz-768kbps.245451/" class="internalLink">KING KONG - Single</a><br>
</li>
<li><a href="https://sharemania.us/threads/treasure-special-mini-album-pleasure-ep-eac3-joc-16bit-48khz-768kbps-5-1-surround.269469/" class="internalLink">SPECIAL MINI ALBUM [PLEASURE] - EP</a><br>
</li>
<li><a href="https://sharemania.us/threads/treasure-%E2%80%93-3rd-mini-album-love-pulse-ep-eac3-joc-16bit-48khz-768kbps-5-1s.283182/" class="internalLink">3rd MINI ALBUM [LOVE PULSE] - EP</a></li>
</ul><br>
PASSWORD ZIP: sharemania<br>
link:<br>




<div class="bbCodeBlock bbCodeVfcHH HiddenContent">
	<div class="attribution type">Hidden Content:</div>
	<blockquote>You must reply before you can see the hidden data contained here.</blockquote>
</div>
					<div class="messageTextEndMarker">&nbsp;</div>
				</blockquote>
			</article>]]></description>
                <author><![CDATA[andammm777]]></author>
                </item>

                
                <item>
                <title><![CDATA[【Albums (lossy)】Dolby Atmos - TREASURE - 2ND FULL ALBUM 'REBOOT' [EAC3-JOC, 16bit/48kHz, 768Kbps, 5.1s]]]></title>
                <link><![CDATA[https://sharemania.us/threads/treasure-2nd-full-album-reboot-eac3-joc-16bit-48khz-768kbps-5-1s.283183/]]></link>
                <description><![CDATA[<article>
				<blockquote class="messageText SelectQuoteContainer ugc baseHtml">
					
					<img src="https://a5.mzstatic.com/us/r1000/0/Music116/v4/e7/6b/8c/e76b8c39-6b79-9516-aba4-04062cc8fda7/TS_REBOOT_Digital_Cover_4000_4000.jpg" class="bbCodeImage LbImage" alt="[​IMG]" data-url="https://a5.mzstatic.com/us/r1000/0/Music116/v4/e7/6b/8c/e76b8c39-6b79-9516-aba4-04062cc8fda7/TS_REBOOT_Digital_Cover_4000_4000.jpg" style=""><br>
<br>
<b>Artist: TREASURE<br>
Album: 2ND FULL ALBUM 'REBOOT'<br>
Format: ◗◖Dolby Atmos◗◖<br>
.m4a [EAC3-JOC, 16bit/48kHz, 768Kbps, 5.1s]<br>
</b><br>
<br>
Tracklist:<br>
1 BONA BONA <img src="https://bendodson.s3-eu-west-1.amazonaws.com/apple-music/dolby-atmos.png" class="bbCodeImage LbImage" alt="[​IMG]" data-url="https://bendodson.s3-eu-west-1.amazonaws.com/apple-music/dolby-atmos.png" style=""> 03:33<br>
2 I WANT YOUR LOVE <img src="https://bendodson.s3-eu-west-1.amazonaws.com/apple-music/dolby-atmos.png" class="bbCodeImage LbImage" alt="[​IMG]" data-url="https://bendodson.s3-eu-west-1.amazonaws.com/apple-music/dolby-atmos.png" style=""> 03:09<br>
3 RUN <img src="https://bendodson.s3-eu-west-1.amazonaws.com/apple-music/dolby-atmos.png" class="bbCodeImage LbImage" alt="[​IMG]" data-url="https://bendodson.s3-eu-west-1.amazonaws.com/apple-music/dolby-atmos.png" style=""> 03:31<br>
4 MOVE (T5) <img src="https://bendodson.s3-eu-west-1.amazonaws.com/apple-music/dolby-atmos.png" class="bbCodeImage LbImage" alt="[​IMG]" data-url="https://bendodson.s3-eu-west-1.amazonaws.com/apple-music/dolby-atmos.png" style=""> 03:28<br>
5 G.O.A.T (RAP Unit) [feat. Lee Young Hyun] <img src="https://bendodson.s3-eu-west-1.amazonaws.com/apple-music/dolby-atmos.png" class="bbCodeImage LbImage" alt="[​IMG]" data-url="https://bendodson.s3-eu-west-1.amazonaws.com/apple-music/dolby-atmos.png" style=""> 03:02<br>
6 STUPID <img src="https://bendodson.s3-eu-west-1.amazonaws.com/apple-music/dolby-atmos.png" class="bbCodeImage LbImage" alt="[​IMG]" data-url="https://bendodson.s3-eu-west-1.amazonaws.com/apple-music/dolby-atmos.png" style=""> 03:00<br>
7 THE WAY TO (VOCAL Unit) <img src="https://bendodson.s3-eu-west-1.amazonaws.com/apple-music/dolby-atmos.png" class="bbCodeImage LbImage" alt="[​IMG]" data-url="https://bendodson.s3-eu-west-1.amazonaws.com/apple-music/dolby-atmos.png" style=""> 03:28<br>
8 WONDERLAND <img src="https://bendodson.s3-eu-west-1.amazonaws.com/apple-music/dolby-atmos.png" class="bbCodeImage LbImage" alt="[​IMG]" data-url="https://bendodson.s3-eu-west-1.amazonaws.com/apple-music/dolby-atmos.png" style=""> 02:59<br>
9 B.O.M.B <img src="https://bendodson.s3-eu-west-1.amazonaws.com/apple-music/dolby-atmos.png" class="bbCodeImage LbImage" alt="[​IMG]" data-url="https://bendodson.s3-eu-west-1.amazonaws.com/apple-music/dolby-atmos.png" style=""> 03:21<br>
10 LOVESICK <img src="https://bendodson.s3-eu-west-1.amazonaws.com/apple-music/dolby-atmos.png" class="bbCodeImage LbImage" alt="[​IMG]" data-url="https://bendodson.s3-eu-west-1.amazonaws.com/apple-music/dolby-atmos.png" style=""> 03:24<br>
<b>Released 28 July 2023<br>
℗ 2023 YG Entertainment</b><br>
<br>



<div class="ToggleTriggerAnchor bbCodeSpoilerContainer">
	<button type="button" class="button bbCodeSpoilerButton ToggleTrigger Tooltip JsOnly" data-target="&gt; .SpoilerTarget"><span>Spoiler: <span class="SpoilerTitle">MediaInfo-Dolby Atmos</span></span></button>
	<div class="SpoilerTarget bbCodeSpoilerText">

<div class="bbCodeBlock bbCodeCode">
	<div class="type">Code:</div>
	<pre>General
Complete name               : 01 BONA BONA.m4a
Format                      : MPEG-4
Format profile              : Base Media
Codec ID                    : isom (isom)
File size                   : 21.0 MiB
Duration                    : 3 min 33 s
Overall bit rate mode       : Constant
Overall bit rate            : 825 kb/s
Album                       : 2ND FULL ALBUM 'REBOOT'
Album/Sorted by             : 2ND FULL ALBUM 'REBOOT'
Album/Performer             : TREASURE
Part/Position               : 1
Part/Total                  : 1
Track name                  : BONA BONA
Track name/Position         : 1
Track name/Total            : 10
Performer                   : TREASURE
Performer/Sorted by         : TREASURE
Genre                       : K-Pop
ContentType                 : Music
Recorded date               : 2023-07-28 12:00:00 UTC
Encoded date                : 2025-09-03 12:12:47 UTC
Copyright                   : ℗ 2023 YG Entertainment
Cover                       : Yes
Lyrics                      : [00:16.44]낮에 타는 태양 / [00:19.83]새벽의 별 같아 / [00:23.46]내 세상 속엔 네가 / [00:27.09]매일 떠오르니까 / [00:30.75]Baby don’t cry 꽉 잡아 여길 떠나 / [00:34.36]너와 내가 영원할 곳으로 / [00:38.02]'Cause I can't stop 도망가자 여긴 폭탄 / [00:41.69]우릴 파괴하는 것들뿐이야 / [00:44.12]You are magic in my mind / [00:47.76]정해진 운명은 없다고 하지만 / [00:51.35]수만 번 생각해 봐도 / [00:55.05]눈을 뜨고 태어났을 때부터 난 / [01:02.35]Born to, born to, born to love ya / [01:06.84]Yeah, yeah / [01:09.63]Born to, born to, born to love ya / [01:13.75]Oh / [01:16.86]Born to, born to, born to love ya / [01:22.31]홀린 듯이 / [01:23.25]뒤꽁무니 / [01:24.15]쫓아가지 / [01:25.96]홀린 듯이 / [01:26.87]더 빠져 Deep / [01:27.75]Follow your lips / [01:29.61]네 맘에 문 열어 Door / [01:31.48]파고들어 너의 Core / [01:33.27]Forever ever all long / [01:34.62]갈 수 있게 / [01:35.43]Abracadabra / [01:36.43]Born to love ya 널 원해 전부 다 / [01:38.27]거절은 거절해 난 / [01:39.34]너 말고 아무것도 안 담아 / [01:40.83]네 품에 난 갇혀 / [01:41.90]감싸 줘 Xs and Os / [01:43.23]널 반복되는 매 생마다 / [01:44.61]Born to love ya 찾았어 / [01:45.39]Again and again 돌고 돌아서 / [01:46.86]마침표 팍 / [01:47.73]넌 내 마지막 / [01:48.70]영원히 놓지 않아 / [01:50.26]No doubt / [01:50.74]눈이 번쩍 뜨여졌어 너란 보석 / [01:54.38]너를 갖고 싶어 훔쳤으니까 / [01:58.00]나를 던져 너를 건져 / [01:59.83]Come closer / [02:01.67]우리 사랑의 시작일 뿐이야 / [02:04.12]You are magic in my mind / [02:07.73]정해진 운명은 없다고 하지만 / [02:11.35]수만 번 생각해 봐도 / [02:15.05]눈을 뜨고 태어났을 때부터 난 / [02:22.33]Born to, born to, born to love ya / [02:26.86]Yeah, yeah / [02:29.57]Born to, born to, born to love ya / [02:33.68]Oh / [02:36.91]Born to, born to, born to love ya / [02:40.32]아침 해가 뜰 때까지 / [02:42.13]Let's speed it up, let's speed it up / [02:43.93]달아나 지구 끝까지 / [02:45.77]Let's speed it up, let's speed it up / [02:47.57]둘만의 섬으로 가자 / [02:49.41]다른 사람은 안 돼 Baby, you're all that I need / [02:54.55]No / [02:58.99]넌 내 삶의 Climax / [03:00.97]뜨거워져 Burning in love / [03:03.05]하얗게 불태워 You’re my adrenaline / [03:06.22]넌 내 삶의 Climax / [03:08.22]뜨거워져 Burning in love / [03:10.33]하얗게 불태워 You’re my adrenaline / [03:13.23]Born to, born to, born to / [03:14.61]Oh, oh, oh, oh, oh / [03:16.87]Love ya, love ya, love ya / [03:18.24]Oh, oh, oh, oh, oh, oh, oh, oh / [03:20.52]Born to, born to, born to / [03:21.92]Oh, oh, oh, oh, oh / [03:24.13]Love ya, love ya, love ya / [03:25.52]Oh, oh, oh, oh, oh, oh, oh, oh / [03:27.78]Born to, born to, born to love ya
Rating                      : Clean
GenreID                     : 51
AppleStoreCountry           : Indonesia
Title/Sort                  : BONA BONA
AlbumTitleID                : 1526319335
PlayListID                  : 1696542993
AppleStoreCatalogID         : 1696542996
Vendor                      : 10366091500:isrc:KRA402300014

Audio
ID                          : 1
Format                      : E-AC-3 JOC
Format/Info                 : Enhanced AC-3 with Joint Object Coding
Commercial name             : Dolby Digital Plus with Dolby Atmos
Codec ID                    : ec-3
Duration                    : 3 min 33 s
Bit rate mode               : Constant
Bit rate                    : 768 kb/s
Maximum bit rate            : 811 kb/s
Channel(s)                  : 6 channels
Channel layout              : L R C LFE Ls Rs
Sampling rate               : 48.0 kHz
Frame rate                  : 31.250 FPS (1536 SPF)
Compression mode            : Lossy
Stream size                 : 19.5 MiB (93%)
Title                       : mp4@GPAC2.5-DEV-rev1694-g4860a1a6-master
Service kind                : Complete Main
Default                     : Yes
Alternate group             : 1
Encoded date                : 2025-09-03 12:12:47 UTC
Complexity index            : 16
Number of dynamic objects   : 15
Bed channel count           : 1 channel
Bed channel configuration   : LFE
Dialog Normalization        : -18 dB
compr                       : -0.28 dB
dmixmod                     : Lo/Ro
ltrtcmixlev                 : -3.0 dB
ltrtsurmixlev               : -3.0 dB
lorocmixlev                 : -3.0 dB
lorosurmixlev               : -3.0 dB
dialnorm_Average            : -18 dB
dialnorm_Minimum            : -18 dB
dialnorm_Maximum            : -18 dB

</pre>
</div></div>
</div><br>
Another Treasure Singles, Albums, EPs on <b>◗◖Dolby Atmos◗◖</b>:<br>
<ul>
<li><a href="https://sharemania.us/threads/treasure-%E2%80%93-the-first-step-treasure-effect-eac3-joc-16bit-48khz-768kbps-5-1s.282052/" class="internalLink">THE FIRST STEP : TREASURE EFFECT</a><br>
</li>
<li><a href="https://sharemania.us/threads/treasure-%E2%80%93-the-second-step-chapter-one-ep-eac3-joc-16bit-48khz-768kbps-5-1-surround.274094/" class="internalLink">THE SECOND STEP : CHAPTER ONE - EP</a><br>
</li>
<li><a href="https://sharemania.us/threads/treasure-%E2%80%93-the-second-step-chapter-two-ep-eac3-joc-16bit-48khz-768kbps-5-1-surround.274095/" class="internalLink">THE SECOND STEP : CHAPTER TWO - EP</a></li>
<li><a href="https://sharemania.us/threads/treasure-2nd-full-album-reboot-eac3-joc-16bit-48khz-768kbps-5-1s.283183/" class="internalLink">2ND FULL ALBUM 'REBOOT'</a><br>
</li>
<li><a href="https://sharemania.us/threads/treasure-king-kong-eac3-joc-16bit-48khz-768kbps.245451/" class="internalLink">KING KONG - Single</a><br>
</li>
<li><a href="https://sharemania.us/threads/treasure-special-mini-album-pleasure-ep-eac3-joc-16bit-48khz-768kbps-5-1-surround.269469/" class="internalLink">SPECIAL MINI ALBUM [PLEASURE] - EP</a><br>
</li>
<li><a href="https://sharemania.us/threads/treasure-%E2%80%93-3rd-mini-album-love-pulse-ep-eac3-joc-16bit-48khz-768kbps-5-1s.283182/" class="internalLink">3rd MINI ALBUM [LOVE PULSE] - EP</a></li>
</ul><br>
PASSWORD ZIP: sharemania<br>
link:<br>




<div class="bbCodeBlock bbCodeVfcHH HiddenContent">
	<div class="attribution type">Hidden Content:</div>
	<blockquote>You must reply before you can see the hidden data contained here.</blockquote>
</div>
					<div class="messageTextEndMarker">&nbsp;</div>
				</blockquote>
			</article>]]></description>
                <author><![CDATA[andammm777]]></author>
                </item>

                </channel></rss>